<svg width="66px" height="56px" viewBox="0 0 66 56" version="1.1" xmlns="http://www.w3.org/2000/svg" xmlns:xlink="http://www.w3.org/1999/xlink">
    <!-- Generator: Sketch 51.1 (57501) - http://www.bohemiancoding.com/sketch -->
    <desc>Created with Sketch.</desc>
    <defs></defs>
    <g id="Page-1" stroke="none" stroke-width="1" fill="none" fill-rule="evenodd">
        <g id="Original" transform="translate(32.500000, 28.500000) rotate(180.000000) translate(-32.500000, -28.500000) translate(2.000000, 3.000000)" fill-rule="nonzero" stroke="#000000">
            <path d="M25,6 L25,1.99291558 C25,1.44063083 24.5522847,0.992915582 24,0.992915582 L0.565770891,0.992915582 C0.0134861412,0.992915582 -0.434229109,1.44063083 -0.434229109,1.99291558 L-0.434229109,49.7541766 C-0.434229109,50.3064613 0.0134861412,50.7541766 0.565770891,50.7541766 L24,50.7541766 C24.5522847,50.7541766 25,50.3064613 25,49.7541766 L25,46" id="Path-2" stroke-width="5"></path>
            <path d="M60.2928932,26.7071068 L42.7071068,44.2928932 C42.3165825,44.6834175 41.6834175,44.6834175 41.2928932,44.2928932 C41.1053568,44.1053568 41,43.8510029 41,43.5857864 L41,36 L17,36 C16.4477153,36 16,35.5522847 16,35 L16,17 C16,16.4477153 16.4477153,16 17,16 L41,16 L41,8.41421356 C41,7.86192881 41.4477153,7.41421356 42,7.41421356 C42.2652165,7.41421356 42.5195704,7.5195704 42.7071068,7.70710678 L60.2928932,25.2928932 C60.6834175,25.6834175 60.6834175,26.3165825 60.2928932,26.7071068 Z" id="Path-6" stroke-width="4"></path>
        </g>
    </g>
</svg>